<?xml version="1.0" encoding="utf-8" ?><svg xmlns="http://www.w3.org/2000/svg" xmlns:xlink="http://www.w3.org/1999/xlink" width="224" height="179" viewBox="152 146 224 179"><path fill="#32B570" transform="scale(0.5 0.5)" d="M426.055 292.318C429.533 295.31 434.218 300.408 437.625 303.763L459.236 324.831L540.566 405.741C551.645 416.961 562.828 428.077 574.113 439.088C591.067 455.407 613.119 475.058 625.808 494.555C637.744 512.896 641.7 542.552 636.174 563.643C628.683 592.238 607.385 614.259 582.366 629.042C572.884 634.585 563.038 638.991 552.899 643.155C562.548 635.17 570.767 627.439 576.432 615.987C585.21 598.243 584.215 574.79 575.259 557.331C567 541.232 551.162 527.708 538.277 514.864L470.545 447.373C457.849 434.762 442.637 420.778 431.65 407.075C414.419 385.585 408.132 353.829 413.21 327.089C415.718 313.884 420.087 304.266 426.055 292.318Z"/><path fill="#F6B82B" transform="scale(0.5 0.5)" d="M415.013 407.19C417.576 409.039 426.132 418.097 428.863 420.851L459.356 451.493L522.629 514.37C533.499 525.268 545.499 536.594 555.459 548.26C572.051 567.694 575.754 593.039 563.827 615.565C562.415 617.781 561.473 619.32 559.748 621.347C558.569 612.552 557.274 606.014 551.707 598.81C543.706 588.455 530.343 579.309 519.9 571.148C506.445 560.441 493.118 549.574 479.92 538.552C468.309 528.973 453.937 517.584 443.933 506.554C437.208 498.989 431.365 490.683 426.518 481.797C417.063 464.56 411.971 444.312 412.96 424.759C413.28 418.449 413.201 413.376 415.013 407.19Z"/><path fill="#3E90EE" transform="scale(0.5 0.5)" d="M585.204 435.686C606.011 412.466 625.215 393.578 658.525 391.7C677.091 390.654 696.418 398.765 710.032 411.207C710.576 411.705 711.111 412.215 711.635 412.734C699.501 425.267 693.877 438.962 694.154 456.649C694.165 457.476 694.189 458.303 694.228 459.129C684.559 475.642 678.864 484.732 672.5 503.541C664.24 527.949 660.701 548.353 647.331 570.99L645.162 570.545C653.572 543.385 652.845 520.85 639.681 494.769C632.186 479.919 618.121 467.636 606.443 455.83C600.219 449.538 591.884 441.317 585.204 435.686Z"/><path fill="#32B570" transform="scale(0.5 0.5)" d="M304.829 527.433C318.519 527.636 332.997 527.203 346.463 527.648C347.695 530.817 348.854 535.477 350.063 538.958C353.744 549.614 359.767 559.31 367.691 567.332C388.404 588.697 416.993 598.675 446.331 599.135L440.296 601.159C436.416 602.613 432.436 603.789 428.389 604.678C400.637 610.46 371.724 605.099 347.89 589.752C324.123 574.413 310.709 554.855 304.829 527.433Z"/><path fill="#3E90EE" transform="scale(0.5 0.5)" d="M497.447 567.506C500.799 569.725 509.475 576.961 512.087 579.863C507.306 604.446 496.803 618.28 473.449 627.995C452.576 636.736 429.069 636.736 408.196 627.996C401.996 625.074 393.366 620.878 389.421 615.366C404.646 618.177 420.283 617.88 435.391 614.493C455.056 610.044 476.724 598.922 489.28 582.671C492.794 578.122 494.348 572.223 497.447 567.506Z"/><path fill="#DF293E" transform="scale(0.5 0.5)" d="M518.74 584.28C523.821 587.959 537.262 597.713 540.912 602.178C573.019 641.461 511.758 650.737 486.764 649.293C474.41 648.555 465.811 647.805 454.152 643.61C461.121 642.164 467.161 641.091 473.928 638.637C498.882 629.585 514.749 610.254 518.74 584.28Z"/><path fill="#F6B82B" transform="scale(0.5 0.5)" d="M357.737 527.521C371.295 527.5 384.853 527.676 398.406 528.049C401.437 537.971 402.438 543.954 408.373 552.694C418.504 567.615 432.282 577.443 449.573 582.459C452.82 583.401 465.048 584.615 465.723 584.982L464.279 585.586C462.171 586.309 460.015 586.888 457.828 587.318C418.061 595.533 366.148 569.494 357.737 527.521Z"/><path fill="#DF293E" transform="scale(0.5 0.5)" d="M717.285 415.522C728.168 420.228 740.163 423.366 751.131 427.775C741.153 430.654 733.392 432.872 723.835 437.119C713.776 441.629 711.166 444.084 702.206 450.302C702.213 449.688 702.225 449.074 702.242 448.461C702.629 434.99 707.512 424.757 717.285 415.522Z"/><path fill="#57AFFA" transform="scale(0.5 0.5)" d="M642.847 577.738L645.162 570.545L647.331 570.99C646.038 573.3 644.37 575.556 642.847 577.738Z"/></svg>
